<svg width="312" height="403" viewBox="0 0 312 403" fill="none" xmlns="http://www.w3.org/2000/svg">
<g filter="url(#filter0_d_406_51)">
<rect x="1" y="38" width="300" height="300" rx="25" fill="#DBF3DA"/>
<rect x="6" y="43" width="290" height="290" rx="20" stroke="#0EB10A" stroke-width="10"/>
</g>
<path d="M145.734 317V119.344C142.349 122.469 138.182 125.594 133.234 128.719C128.417 131.714 123.339 134.578 118 137.312C112.661 139.917 107.388 142.326 102.18 144.539C96.9714 146.622 92.4141 148.25 88.5078 149.422V110.945C92.9349 109.122 98.013 106.388 103.742 102.742C109.602 99.0964 115.266 95.2552 120.734 91.2188C126.203 87.0521 131.151 83.0807 135.578 79.3047C140.005 75.5286 143 72.599 144.562 70.5156H186.555V317H145.734Z" fill="#0EB10A" fill-opacity="0.2"/>
<path d="M122 377.91L138.26 395.11L172 362" stroke="#0EB10A" stroke-width="10" stroke-linecap="round"/>
<g filter="url(#filter1_d_406_51)">
<path d="M55.0005 99.5C229.168 74.3731 55.0003 292.873 251 274.5" stroke="#0EB10A" stroke-opacity="0.8" stroke-width="10" shape-rendering="crispEdges"/>
</g>
<rect x="68" y="38" width="157.737" height="11" fill="white"/>
<path d="M78.95 52C78.2833 52 77.7 51.7667 77.2 51.3C76.7333 50.8 76.5 50.2167 76.5 49.55V20.45C76.5 17.85 78.0667 16.55 81.2 16.55V47.85H96.55C97.7167 47.85 98.6167 48.2167 99.25 48.95C99.8833 49.65 100.2 50.6667 100.2 52H78.95ZM108.755 22.8C107.822 22.8 107.038 22.5 106.405 21.9C105.772 21.3 105.455 20.55 105.455 19.65C105.455 18.75 105.772 18.0167 106.405 17.45C107.038 16.85 107.822 16.55 108.755 16.55C109.655 16.55 110.422 16.85 111.055 17.45C111.688 18.0167 112.005 18.75 112.005 19.65C112.005 20.55 111.688 21.3 111.055 21.9C110.422 22.5 109.655 22.8 108.755 22.8ZM106.555 29.75C106.555 28.65 106.905 27.85 107.605 27.35C108.338 26.8167 109.438 26.55 110.905 26.55V49.25C110.905 50.35 110.538 51.1667 109.805 51.7C109.105 52.2 108.022 52.45 106.555 52.45V29.75ZM119.029 30.25C119.029 27.7833 120.429 26.55 123.229 26.55V29.75C122.929 30.05 122.579 30.5 122.179 31.1L122.379 31.3C123.379 29.9 124.679 28.7667 126.279 27.9C127.879 27 129.613 26.55 131.479 26.55C134.179 26.55 136.313 27.35 137.879 28.95C139.446 30.55 140.229 32.6167 140.229 35.15V49.25C140.229 50.35 139.863 51.1667 139.129 51.7C138.429 52.2 137.346 52.45 135.879 52.45V35.6C135.879 34 135.429 32.7333 134.529 31.8C133.629 30.8667 132.263 30.4 130.429 30.4C129.196 30.4 128.029 30.6667 126.929 31.2C125.863 31.7 124.996 32.4 124.329 33.3C123.696 34.1667 123.379 35.1167 123.379 36.15V49.25C123.379 50.35 123.013 51.1667 122.279 51.7C121.579 52.2 120.496 52.45 119.029 52.45V30.25ZM146.715 20.25C146.715 19.05 147.082 18.1333 147.815 17.5C148.548 16.8667 149.632 16.55 151.065 16.55V29.7C150.598 30.2333 150.232 30.7 149.965 31.1L150.165 31.3C151.198 29.9 152.498 28.7667 154.065 27.9C155.632 27 157.332 26.55 159.165 26.55C161.865 26.55 163.998 27.35 165.565 28.95C167.132 30.55 167.915 32.6167 167.915 35.15V49.25C167.915 50.35 167.548 51.1667 166.815 51.7C166.115 52.2 165.032 52.45 163.565 52.45V35.6C163.565 34 163.115 32.7333 162.215 31.8C161.315 30.8667 159.948 30.4 158.115 30.4C156.882 30.4 155.715 30.6667 154.615 31.2C153.548 31.7 152.682 32.4 152.015 33.3C151.382 34.1667 151.065 35.1167 151.065 36.15V49.25C151.065 50.35 150.698 51.1667 149.965 51.7C149.265 52.2 148.182 52.45 146.715 52.45V20.25ZM182.7 52.45C179.834 52.45 177.517 51.6833 175.75 50.15C174.017 48.6167 173.15 46.6 173.15 44.1C173.15 41.5667 174.067 39.5333 175.9 38C177.734 36.4333 180.15 35.65 183.15 35.65C186.35 35.65 188.984 36.7833 191.05 39.05L191.25 38.85C190.884 38.45 190.467 38.0333 190 37.6V35.5C190 33.8 189.467 32.4833 188.4 31.55C187.334 30.6167 185.817 30.15 183.85 30.15C180.35 30.15 177.85 31.5333 176.35 34.3C175.817 34.0333 175.367 33.6833 175 33.25C174.667 32.7833 174.5 32.3167 174.5 31.85C174.5 30.95 174.95 30.1 175.85 29.3C176.75 28.4667 177.934 27.8 179.4 27.3C180.9 26.8 182.467 26.55 184.1 26.55C187.267 26.55 189.75 27.3333 191.55 28.9C193.384 30.4667 194.3 32.6333 194.3 35.4V49.1C194.3 50.2667 193.967 51.1167 193.3 51.65C192.634 52.1833 191.584 52.45 190.15 52.45V50.1C190.85 49.3667 191.234 48.9333 191.3 48.8L191.1 48.6C188.934 51.1667 186.134 52.45 182.7 52.45ZM183.45 49C185.517 49 187.134 48.5667 188.3 47.7C189.5 46.8333 190.1 45.6333 190.1 44.1C190.1 42.5667 189.517 41.35 188.35 40.45C187.184 39.55 185.584 39.1 183.55 39.1C181.65 39.1 180.15 39.55 179.05 40.45C177.984 41.3167 177.45 42.5333 177.45 44.1C177.45 45.6667 177.967 46.8833 179 47.75C180.067 48.5833 181.55 49 183.45 49ZM209.378 52.45C207.678 52.45 206.078 52.2 204.578 51.7C203.078 51.1667 201.861 50.4167 200.928 49.45C200.028 48.4833 199.578 47.35 199.578 46.05C199.578 44.45 200.545 43.5833 202.478 43.45C202.811 45.3167 203.595 46.7 204.828 47.6C206.095 48.4667 207.695 48.9 209.628 48.9C211.561 48.9 213.061 48.6167 214.128 48.05C215.195 47.4833 215.728 46.6167 215.728 45.45C215.728 44.6167 215.511 43.95 215.078 43.45C214.645 42.9167 213.945 42.4667 212.978 42.1C212.045 41.7 210.695 41.3167 208.928 40.95C206.728 40.45 204.978 39.9167 203.678 39.35C202.378 38.7833 201.378 38.0333 200.678 37.1C200.011 36.1667 199.678 34.9333 199.678 33.4C199.678 32.1 200.078 30.9333 200.878 29.9C201.678 28.8333 202.778 28.0167 204.178 27.45C205.611 26.85 207.228 26.55 209.028 26.55C210.695 26.55 212.261 26.7833 213.728 27.25C215.228 27.7167 216.428 28.3833 217.328 29.25C218.261 30.1167 218.728 31.1167 218.728 32.25C218.728 33.0167 218.428 33.6333 217.828 34.1C217.228 34.5333 216.395 34.7833 215.328 34.85C215.228 33.3833 214.628 32.2333 213.528 31.4C212.461 30.5333 210.961 30.1 209.028 30.1C207.428 30.1 206.161 30.4 205.228 31C204.295 31.6 203.828 32.4 203.828 33.4C203.828 34.4667 204.261 35.2667 205.128 35.8C206.028 36.3 207.545 36.7833 209.678 37.25C213.178 37.95 215.745 38.9167 217.378 40.15C219.045 41.35 219.878 43.0667 219.878 45.3C219.878 47.5667 218.961 49.3333 217.128 50.6C215.295 51.8333 212.711 52.45 209.378 52.45Z" fill="#0EB10A"/>
<defs>
<filter id="filter0_d_406_51" x="0" y="38" width="312" height="312" filterUnits="userSpaceOnUse" color-interpolation-filters="sRGB">
<feFlood flood-opacity="0" result="BackgroundImageFix"/>
<feColorMatrix in="SourceAlpha" type="matrix" values="0 0 0 0 0 0 0 0 0 0 0 0 0 0 0 0 0 0 127 0" result="hardAlpha"/>
<feOffset dx="5" dy="6"/>
<feGaussianBlur stdDeviation="3"/>
<feComposite in2="hardAlpha" operator="out"/>
<feColorMatrix type="matrix" values="0 0 0 0 0 0 0 0 0 0 0 0 0 0 0 0 0 0 0.25 0"/>
<feBlend mode="normal" in2="BackgroundImageFix" result="effect1_dropShadow_406_51"/>
<feBlend mode="normal" in="SourceGraphic" in2="effect1_dropShadow_406_51" result="shape"/>
</filter>
<filter id="filter1_d_406_51" x="50.2861" y="92.4912" width="205.181" height="196.105" filterUnits="userSpaceOnUse" color-interpolation-filters="sRGB">
<feFlood flood-opacity="0" result="BackgroundImageFix"/>
<feColorMatrix in="SourceAlpha" type="matrix" values="0 0 0 0 0 0 0 0 0 0 0 0 0 0 0 0 0 0 127 0" result="hardAlpha"/>
<feOffset dy="4"/>
<feGaussianBlur stdDeviation="2"/>
<feComposite in2="hardAlpha" operator="out"/>
<feColorMatrix type="matrix" values="0 0 0 0 0 0 0 0 0 0 0 0 0 0 0 0 0 0 0.25 0"/>
<feBlend mode="normal" in2="BackgroundImageFix" result="effect1_dropShadow_406_51"/>
<feBlend mode="normal" in="SourceGraphic" in2="effect1_dropShadow_406_51" result="shape"/>
</filter>
</defs>
</svg>
