<svg width="312" height="403" viewBox="0 0 312 403" fill="none" xmlns="http://www.w3.org/2000/svg">
<g filter="url(#filter0_d_406_43)">
<rect x="1" y="38" width="300" height="300" rx="25" fill="#DBF3DA"/>
<rect x="6" y="43" width="290" height="290" rx="20" stroke="#0EB10A" stroke-width="10"/>
</g>
<path d="M239.867 128.844C239.867 142.776 236.742 155.862 230.492 168.102C224.372 180.211 215.583 192.125 204.125 203.844C192.797 215.432 179.125 227.086 163.109 238.805C147.094 250.523 129.32 262.893 109.789 275.914H234.984V314H67.7969V278.844C92.9271 259.052 113.76 241.669 130.297 226.695C146.964 211.721 160.245 198.44 170.141 186.852C180.036 175.133 187.003 164.716 191.039 155.602C195.076 146.357 197.094 137.568 197.094 129.234C197.094 125.328 196.508 121.161 195.336 116.734C194.294 112.177 192.341 108.01 189.477 104.234C186.612 100.328 182.706 97.138 177.758 94.6641C172.81 92.0599 166.56 90.7578 159.008 90.7578C151.326 90.7578 144.75 92.1901 139.281 95.0547C133.943 97.9193 129.516 101.565 126 105.992C122.615 110.289 120.01 115.107 118.188 120.445C116.495 125.784 115.453 130.992 115.062 136.07H72.2891C73.8516 110.68 82.0547 91.6693 96.8984 79.0391C111.742 66.4089 132.836 60.0938 160.18 60.0938C172.94 60.0938 184.268 61.7214 194.164 64.9766C204.06 68.2318 212.393 72.8542 219.164 78.8438C225.935 84.8333 231.078 92.0599 234.594 100.523C238.109 108.987 239.867 118.427 239.867 128.844Z" fill="#0EB10A" fill-opacity="0.2"/>
<path d="M148.721 97L173.569 163.787L240.721 188.5L173.569 213.213L148.721 280L123.872 213.213L56.7206 188.5L123.872 163.787L148.721 97Z" fill="#0EB10A"/>
<path d="M134 377.91L150.26 395.11L184 362" stroke="#0EB10A" stroke-width="10" stroke-linecap="round"/>
<rect x="61" y="38" width="171.645" height="11" fill="white"/>
<path d="M70.2988 19.2C70.2988 18.5667 70.5322 18.05 70.9988 17.65C71.4655 17.2167 72.0322 17 72.6988 17H94.9988C94.9988 18.4 94.7155 19.4333 94.1488 20.1C93.5822 20.7667 92.7155 21.1 91.5488 21.1H74.9988V32.05H88.9988C88.9988 33.45 88.7155 34.4833 88.1488 35.15C87.5822 35.8167 86.7155 36.15 85.5488 36.15H74.9988V48.65C74.9988 49.95 74.6155 50.9167 73.8488 51.55C73.0822 52.15 71.8988 52.45 70.2988 52.45V19.2ZM102.504 52.45C100.471 52.45 98.6206 52.0667 96.9539 51.3C95.3206 50.5333 94.0372 49.5 93.1039 48.2C92.2039 46.8667 91.7539 45.3833 91.7539 43.75V35.55C91.7539 33.8833 92.2039 32.3667 93.1039 31C94.0372 29.6333 95.3206 28.55 96.9539 27.75C98.5872 26.95 100.437 26.55 102.504 26.55C104.571 26.55 106.421 26.95 108.054 27.75C109.721 28.55 111.004 29.6333 111.904 31C112.837 32.3667 113.304 33.8833 113.304 35.55V43.75C113.304 45.3833 112.837 46.8667 111.904 48.2C110.971 49.5 109.687 50.5333 108.054 51.3C106.421 52.0667 104.571 52.45 102.504 52.45ZM102.504 48.7C104.504 48.7 106.087 48.2333 107.254 47.3C108.454 46.3333 109.054 45.0833 109.054 43.55V35.7C109.054 34.1 108.454 32.8 107.254 31.8C106.087 30.8 104.504 30.3 102.504 30.3C100.537 30.3 98.9539 30.8 97.7539 31.8C96.5539 32.8 95.9539 34.1 95.9539 35.7V43.55C95.9539 45.0833 96.5372 46.3333 97.7039 47.3C98.9039 48.2333 100.504 48.7 102.504 48.7ZM129.928 30.4C128.061 30.4 126.511 30.9667 125.278 32.1C124.045 33.2 123.428 34.55 123.428 36.15V49.25C123.428 50.35 123.061 51.1667 122.328 51.7C121.628 52.2 120.545 52.45 119.078 52.45V30.25C119.078 27.7833 120.478 26.55 123.278 26.55V29.6C122.745 30.1667 122.378 30.6667 122.178 31.1L122.378 31.3C124.511 28.1333 127.178 26.55 130.378 26.55C131.578 26.55 132.495 26.85 133.128 27.45C133.761 28.0167 134.078 28.7167 134.078 29.55C134.078 30.15 133.928 30.6833 133.628 31.15C132.695 30.65 131.461 30.4 129.928 30.4ZM139.342 30.25C139.342 27.7833 140.725 26.55 143.492 26.55V29.75C143.058 30.2167 142.708 30.6667 142.442 31.1L142.642 31.3C143.708 29.8 144.842 28.6333 146.042 27.8C147.242 26.9667 148.625 26.55 150.192 26.55C153.225 26.55 155.308 28 156.442 30.9C158.342 28 160.875 26.55 164.042 26.55C166.408 26.55 168.225 27.35 169.492 28.95C170.792 30.5167 171.442 32.5833 171.442 35.15V49.25C171.442 50.35 171.075 51.1667 170.342 51.7C169.642 52.2 168.575 52.45 167.142 52.45V35.4C167.142 33.8 166.808 32.55 166.142 31.65C165.475 30.75 164.425 30.3 162.992 30.3C161.492 30.3 160.208 30.8167 159.142 31.85C158.075 32.85 157.542 34.2 157.542 35.9V49.25C157.542 50.35 157.192 51.1667 156.492 51.7C155.792 52.2 154.725 52.45 153.292 52.45V35.4C153.292 33.8 152.958 32.55 152.292 31.65C151.625 30.75 150.575 30.3 149.142 30.3C147.608 30.3 146.308 30.85 145.242 31.95C144.175 33.05 143.642 34.4 143.642 36V49.25C143.642 50.35 143.275 51.1667 142.542 51.7C141.842 52.2 140.775 52.45 139.342 52.45V30.25ZM186.265 52.45C183.398 52.45 181.082 51.6833 179.315 50.15C177.582 48.6167 176.715 46.6 176.715 44.1C176.715 41.5667 177.632 39.5333 179.465 38C181.298 36.4333 183.715 35.65 186.715 35.65C189.915 35.65 192.548 36.7833 194.615 39.05L194.815 38.85C194.448 38.45 194.032 38.0333 193.565 37.6V35.5C193.565 33.8 193.032 32.4833 191.965 31.55C190.898 30.6167 189.382 30.15 187.415 30.15C183.915 30.15 181.415 31.5333 179.915 34.3C179.382 34.0333 178.932 33.6833 178.565 33.25C178.232 32.7833 178.065 32.3167 178.065 31.85C178.065 30.95 178.515 30.1 179.415 29.3C180.315 28.4667 181.498 27.8 182.965 27.3C184.465 26.8 186.032 26.55 187.665 26.55C190.832 26.55 193.315 27.3333 195.115 28.9C196.948 30.4667 197.865 32.6333 197.865 35.4V49.1C197.865 50.2667 197.532 51.1167 196.865 51.65C196.198 52.1833 195.148 52.45 193.715 52.45V50.1C194.415 49.3667 194.798 48.9333 194.865 48.8L194.665 48.6C192.498 51.1667 189.698 52.45 186.265 52.45ZM187.015 49C189.082 49 190.698 48.5667 191.865 47.7C193.065 46.8333 193.665 45.6333 193.665 44.1C193.665 42.5667 193.082 41.35 191.915 40.45C190.748 39.55 189.148 39.1 187.115 39.1C185.215 39.1 183.715 39.55 182.615 40.45C181.548 41.3167 181.015 42.5333 181.015 44.1C181.015 45.6667 181.532 46.8833 182.565 47.75C183.632 48.5833 185.115 49 187.015 49ZM212.943 52.45C211.243 52.45 209.643 52.2 208.143 51.7C206.643 51.1667 205.426 50.4167 204.493 49.45C203.593 48.4833 203.143 47.35 203.143 46.05C203.143 44.45 204.109 43.5833 206.043 43.45C206.376 45.3167 207.159 46.7 208.393 47.6C209.659 48.4667 211.259 48.9 213.193 48.9C215.126 48.9 216.626 48.6167 217.693 48.05C218.759 47.4833 219.293 46.6167 219.293 45.45C219.293 44.6167 219.076 43.95 218.643 43.45C218.209 42.9167 217.509 42.4667 216.543 42.1C215.609 41.7 214.259 41.3167 212.493 40.95C210.293 40.45 208.543 39.9167 207.243 39.35C205.943 38.7833 204.943 38.0333 204.243 37.1C203.576 36.1667 203.243 34.9333 203.243 33.4C203.243 32.1 203.643 30.9333 204.443 29.9C205.243 28.8333 206.343 28.0167 207.743 27.45C209.176 26.85 210.793 26.55 212.593 26.55C214.259 26.55 215.826 26.7833 217.293 27.25C218.793 27.7167 219.993 28.3833 220.893 29.25C221.826 30.1167 222.293 31.1167 222.293 32.25C222.293 33.0167 221.993 33.6333 221.393 34.1C220.793 34.5333 219.959 34.7833 218.893 34.85C218.793 33.3833 218.193 32.2333 217.093 31.4C216.026 30.5333 214.526 30.1 212.593 30.1C210.993 30.1 209.726 30.4 208.793 31C207.859 31.6 207.393 32.4 207.393 33.4C207.393 34.4667 207.826 35.2667 208.693 35.8C209.593 36.3 211.109 36.7833 213.243 37.25C216.743 37.95 219.309 38.9167 220.943 40.15C222.609 41.35 223.443 43.0667 223.443 45.3C223.443 47.5667 222.526 49.3333 220.693 50.6C218.859 51.8333 216.276 52.45 212.943 52.45Z" fill="#0EB10A"/>
<defs>
<filter id="filter0_d_406_43" x="0" y="38" width="312" height="312" filterUnits="userSpaceOnUse" color-interpolation-filters="sRGB">
<feFlood flood-opacity="0" result="BackgroundImageFix"/>
<feColorMatrix in="SourceAlpha" type="matrix" values="0 0 0 0 0 0 0 0 0 0 0 0 0 0 0 0 0 0 127 0" result="hardAlpha"/>
<feOffset dx="5" dy="6"/>
<feGaussianBlur stdDeviation="3"/>
<feComposite in2="hardAlpha" operator="out"/>
<feColorMatrix type="matrix" values="0 0 0 0 0 0 0 0 0 0 0 0 0 0 0 0 0 0 0.25 0"/>
<feBlend mode="normal" in2="BackgroundImageFix" result="effect1_dropShadow_406_43"/>
<feBlend mode="normal" in="SourceGraphic" in2="effect1_dropShadow_406_43" result="shape"/>
</filter>
</defs>
</svg>
